<svg xmlns="http://www.w3.org/2000/svg" width="185.25" height="45.74" viewBox="0 0 185.25 45.74">
  <g id="logo" transform="translate(-22373 -20347)">
    <path id="Path_1112" data-name="Path 1112" d="M36.1,18.07a1.863,1.863,0,0,1,1.86,1.86v7.73l6.28.04h.74a22.1,22.1,0,0,0,.18-2.84A22.872,22.872,0,0,0,.45,18.07Z" transform="translate(22373 20345)" fill="#3b8b87"/>
    <path id="Path_1113" data-name="Path 1113" d="M44.32,30.85h-.63l-.44-1.84-5.52-.03a1.861,1.861,0,0,1-1.63.97H25.79a7.28,7.28,0,0,0-14.56,0H0a22.831,22.831,0,0,0,44.31.91Zm-25.8,5.11a6.01,6.01,0,1,1,6.01-6.01A6.009,6.009,0,0,1,18.52,35.96Z" transform="translate(22373 20345)" fill="#ed7b45"/>
    <path id="Path_1114" data-name="Path 1114" d="M50.69,12.83h6.98q4.59,0,6.92,1.35a4.9,4.9,0,0,1,2.32,4.63,5.878,5.878,0,0,1-.51,2.5,4.8,4.8,0,0,1-1.48,1.83,5.571,5.571,0,0,1-2.39.99v.16a7.986,7.986,0,0,1,2.64.89A4.617,4.617,0,0,1,66.99,27a6.137,6.137,0,0,1,.67,3.02,6.585,6.585,0,0,1-1.04,3.75,6.391,6.391,0,0,1-2.94,2.34,11.668,11.668,0,0,1-4.52.8H50.69Zm3.38,10.13h4.2c1.94,0,3.29-.32,4.03-.96a3.441,3.441,0,0,0,1.12-2.78,3.02,3.02,0,0,0-1.33-2.73,8.3,8.3,0,0,0-4.23-.83H54.07Zm0,2.78v8.32h4.6c1.99,0,3.39-.39,4.21-1.17a4.142,4.142,0,0,0,1.23-3.15,4.022,4.022,0,0,0-.55-2.15,3.469,3.469,0,0,0-1.79-1.38,9.391,9.391,0,0,0-3.33-.48H54.08Z" transform="translate(22373 20345)" fill="#3b8b87"/>
    <path id="Path_1115" data-name="Path 1115" d="M87.7,18.76V36.91H85.05l-.46-2.49h-.18a4.921,4.921,0,0,1-1.45,1.56,6.512,6.512,0,0,1-1.99.94,8.531,8.531,0,0,1-2.34.31,8.263,8.263,0,0,1-3.55-.69,4.7,4.7,0,0,1-2.21-2.15,8.219,8.219,0,0,1-.75-3.76V18.75h3.33V30.16a4.9,4.9,0,0,0,.95,3.28,3.62,3.62,0,0,0,2.89,1.09,5.277,5.277,0,0,0,3.01-.75,4.178,4.178,0,0,0,1.6-2.19,11.256,11.256,0,0,0,.49-3.53V18.75h3.33Z" transform="translate(22373 20345)" fill="#3b8b87"/>
    <path id="Path_1116" data-name="Path 1116" d="M108.76,18.76V36.91h-2.65l-.46-2.49h-.18a4.921,4.921,0,0,1-1.45,1.56,6.512,6.512,0,0,1-1.99.94,8.531,8.531,0,0,1-2.34.31,8.263,8.263,0,0,1-3.55-.69,4.7,4.7,0,0,1-2.21-2.15,8.219,8.219,0,0,1-.75-3.76V18.75h3.33V30.16a4.9,4.9,0,0,0,.95,3.28,3.619,3.619,0,0,0,2.89,1.09,5.277,5.277,0,0,0,3.01-.75,4.178,4.178,0,0,0,1.6-2.19,11.256,11.256,0,0,0,.49-3.53V18.75h3.33Z" transform="translate(22373 20345)" fill="#3b8b87"/>
    <path id="Path_1117" data-name="Path 1117" d="M123.14,18.43a10.3,10.3,0,0,1,1.07.06c.38.04.71.09.99.14l-.35,3.08a6.542,6.542,0,0,0-.91-.16,8.51,8.51,0,0,0-.96-.07,5.115,5.115,0,0,0-2.01.4,4.984,4.984,0,0,0-1.68,1.15,5.466,5.466,0,0,0-1.14,1.83,6.752,6.752,0,0,0-.41,2.46v9.6h-3.33V18.76h2.67l.4,3.28h.15a8.844,8.844,0,0,1,1.36-1.81,6.3,6.3,0,0,1,1.84-1.31A5.315,5.315,0,0,1,123.14,18.43Z" transform="translate(22373 20345)" fill="#3b8b87"/>
    <path id="Path_1118" data-name="Path 1118" d="M128.99,12.83h6.98q4.59,0,6.92,1.35a4.9,4.9,0,0,1,2.32,4.63,5.878,5.878,0,0,1-.51,2.5,4.8,4.8,0,0,1-1.48,1.83,5.571,5.571,0,0,1-2.39.99v.16a7.986,7.986,0,0,1,2.64.89A4.617,4.617,0,0,1,145.29,27a6.137,6.137,0,0,1,.67,3.02,6.585,6.585,0,0,1-1.04,3.75,6.391,6.391,0,0,1-2.94,2.34,11.668,11.668,0,0,1-4.52.8h-8.47Zm3.38,10.13h4.2c1.94,0,3.29-.32,4.03-.96a3.441,3.441,0,0,0,1.12-2.78,3.02,3.02,0,0,0-1.33-2.73,8.3,8.3,0,0,0-4.23-.83h-3.79Zm0,2.78v8.32h4.6c1.99,0,3.39-.39,4.21-1.17a4.142,4.142,0,0,0,1.23-3.15,4.022,4.022,0,0,0-.55-2.15,3.469,3.469,0,0,0-1.79-1.38,9.391,9.391,0,0,0-3.33-.48h-4.36Z" transform="translate(22373 20345)" fill="#ed7b45"/>
    <path id="Path_1119" data-name="Path 1119" d="M157.53,18.45a7.343,7.343,0,0,1,5.02,1.49q1.665,1.485,1.66,4.7V36.91h-2.37l-.64-2.64h-.13a9.626,9.626,0,0,1-1.58,1.65,5.641,5.641,0,0,1-1.9.99,9.108,9.108,0,0,1-2.63.33,7,7,0,0,1-2.93-.59,4.5,4.5,0,0,1-2.02-1.79,5.728,5.728,0,0,1-.73-3.04,4.754,4.754,0,0,1,2.12-4.2q2.115-1.44,6.44-1.56l3.13-.13V24.91a3.949,3.949,0,0,0-.95-3,3.752,3.752,0,0,0-2.64-.87,9.267,9.267,0,0,0-2.69.4,19.763,19.763,0,0,0-2.47.96L151.17,20a14.675,14.675,0,0,1,2.92-1.1,12.9,12.9,0,0,1,3.43-.44Zm3.41,9.65-2.54.12a8.337,8.337,0,0,0-4.42,1.05,3.037,3.037,0,0,0-1.28,2.59,2.507,2.507,0,0,0,.87,2.12,3.668,3.668,0,0,0,2.31.68,5.313,5.313,0,0,0,3.63-1.24,4.627,4.627,0,0,0,1.42-3.68V28.11Z" transform="translate(22373 20345)" fill="#ed7b45"/>
    <path id="Path_1120" data-name="Path 1120" d="M173.03,11.28V24.13c0,.51-.02,1.08-.06,1.72s-.07,1.23-.11,1.77h.12c.25-.33.59-.76,1.01-1.3s.8-.99,1.13-1.37l5.8-6.19h3.82l-7.28,7.79,7.79,10.36h-3.92l-6.11-8.28-2.19,1.94v6.34h-3.29V11.28Z" transform="translate(22373 20345)" fill="#ed7b45"/>
  </g>
</svg>
