<?xml version="1.0" encoding="UTF-8"?><svg id="Layer_1" xmlns="http://www.w3.org/2000/svg" viewBox="0 0 198.43 70.87"><defs><style>.cls-1{fill:#ed7b45;}.cls-2{fill:#3b8b87;}</style></defs><g><path class="cls-2" d="M43.43,27.06c1.03,0,1.86,.84,1.86,1.86v7.73l6.28,.04h.74c.12-.93,.18-1.87,.18-2.84,0-12.63-10.24-22.87-22.87-22.87-10.26,0-18.95,6.76-21.84,16.07H43.43Z"/><path class="cls-1" d="M51.65,39.83h-.63l-.44-1.84-5.52-.03c-.32,.58-.93,.97-1.63,.97h-10.31c0-4.02-3.26-7.28-7.28-7.28s-7.28,3.26-7.28,7.28H7.33c2.31,10.18,11.41,17.79,22.29,17.79,11.83,0,19.94-8.57,22.02-16.88,0,0,0,0,0,0Zm-25.8,5.11c-3.32,0-6.01-2.69-6.01-6.01s2.69-6.01,6.01-6.01,6.01,2.69,6.01,6.01-2.69,6.01-6.01,6.01Z"/></g><g><path class="cls-2" d="M58.02,21.82h6.98c3.06,0,5.37,.45,6.92,1.35,1.55,.9,2.32,2.44,2.32,4.63,0,.93-.17,1.77-.51,2.5-.34,.74-.84,1.34-1.48,1.83s-1.44,.81-2.39,.99v.16c.99,.16,1.87,.46,2.64,.89,.77,.43,1.38,1.03,1.82,1.82s.67,1.79,.67,3.02c0,1.47-.35,2.72-1.04,3.75-.69,1.03-1.67,1.81-2.94,2.34-1.27,.53-2.77,.8-4.52,.8h-8.47V21.82Zm3.38,10.13h4.2c1.94,0,3.29-.32,4.03-.96,.75-.64,1.12-1.56,1.12-2.78s-.44-2.17-1.33-2.73c-.89-.55-2.3-.83-4.23-.83h-3.79v7.3Zm0,2.78v8.32h4.6c1.99,0,3.39-.39,4.21-1.17,.82-.78,1.23-1.83,1.23-3.15,0-.83-.18-1.55-.55-2.15-.37-.6-.96-1.06-1.79-1.38-.82-.32-1.93-.48-3.33-.48h-4.36Z"/><path class="cls-2" d="M95.03,27.74v18.15h-2.65l-.46-2.49h-.18c-.37,.63-.86,1.15-1.45,1.56-.59,.42-1.26,.73-1.99,.94-.74,.21-1.52,.31-2.34,.31-1.39,0-2.58-.23-3.55-.69-.97-.46-1.71-1.18-2.21-2.15-.5-.97-.75-2.23-.75-3.76v-11.88h3.33v11.41c0,1.46,.32,2.55,.95,3.28,.63,.73,1.6,1.09,2.89,1.09s2.26-.25,3.01-.75c.74-.5,1.27-1.23,1.6-2.19,.32-.96,.49-2.14,.49-3.53v-9.31h3.33Z"/><path class="cls-2" d="M116.1,27.74v18.15h-2.65l-.46-2.49h-.18c-.37,.63-.86,1.15-1.45,1.56-.59,.42-1.26,.73-1.99,.94-.74,.21-1.52,.31-2.34,.31-1.39,0-2.58-.23-3.55-.69-.97-.46-1.71-1.18-2.21-2.15-.5-.97-.75-2.23-.75-3.76v-11.88h3.33v11.41c0,1.46,.32,2.55,.95,3.28,.63,.73,1.6,1.09,2.89,1.09s2.26-.25,3.01-.75c.74-.5,1.27-1.23,1.6-2.19,.32-.96,.49-2.14,.49-3.53v-9.31h3.33Z"/><path class="cls-2" d="M130.47,27.42c.33,0,.69,.02,1.07,.06,.38,.04,.71,.09,.99,.14l-.35,3.08c-.26-.07-.57-.12-.91-.16s-.67-.07-.96-.07c-.7,0-1.37,.13-2.01,.4s-1.2,.65-1.68,1.15c-.48,.5-.86,1.11-1.14,1.83-.28,.72-.41,1.54-.41,2.46v9.6h-3.33V27.74h2.67l.4,3.28h.15c.37-.66,.83-1.26,1.36-1.81,.53-.55,1.15-.98,1.84-1.31s1.47-.49,2.31-.49Z"/><path class="cls-1" d="M136.32,21.82h6.98c3.06,0,5.37,.45,6.92,1.35,1.55,.9,2.32,2.44,2.32,4.63,0,.93-.17,1.77-.51,2.5-.34,.74-.84,1.34-1.48,1.83s-1.44,.81-2.39,.99v.16c.99,.16,1.87,.46,2.64,.89,.77,.43,1.38,1.03,1.82,1.82s.67,1.79,.67,3.02c0,1.47-.35,2.72-1.04,3.75-.69,1.03-1.67,1.81-2.94,2.34-1.27,.53-2.77,.8-4.52,.8h-8.47V21.82Zm3.38,10.13h4.2c1.94,0,3.29-.32,4.03-.96,.75-.64,1.12-1.56,1.12-2.78s-.44-2.17-1.33-2.73c-.89-.55-2.3-.83-4.23-.83h-3.79v7.3Zm0,2.78v8.32h4.6c1.99,0,3.39-.39,4.21-1.17,.82-.78,1.23-1.83,1.23-3.15,0-.83-.18-1.55-.55-2.15-.37-.6-.96-1.06-1.79-1.38-.82-.32-1.93-.48-3.33-.48h-4.36Z"/><path class="cls-1" d="M164.86,27.43c2.24,0,3.91,.5,5.02,1.49s1.66,2.56,1.66,4.7v12.27h-2.37l-.64-2.64h-.13c-.51,.66-1.03,1.21-1.58,1.65-.55,.44-1.18,.77-1.9,.99s-1.6,.33-2.63,.33c-1.1,0-2.07-.2-2.93-.59s-1.53-.99-2.02-1.79c-.49-.8-.73-1.81-.73-3.04,0-1.85,.71-3.24,2.12-4.2s3.56-1.48,6.44-1.56l3.13-.13v-1.02c0-1.42-.32-2.42-.95-3-.63-.58-1.51-.87-2.64-.87-.93,0-1.83,.14-2.69,.4-.86,.27-1.68,.59-2.47,.96l-1.05-2.4c.86-.44,1.83-.81,2.92-1.1,1.09-.3,2.24-.44,3.43-.44Zm3.41,9.65l-2.54,.12c-2.1,.08-3.57,.43-4.42,1.05-.85,.62-1.28,1.49-1.28,2.59,0,.97,.29,1.67,.87,2.12s1.35,.68,2.31,.68c1.47,0,2.68-.41,3.63-1.24,.95-.83,1.42-2.06,1.42-3.68v-1.63Z"/><path class="cls-1" d="M180.36,20.27v12.85c0,.51-.02,1.08-.06,1.72-.04,.64-.07,1.23-.11,1.77h.12c.25-.33,.59-.76,1.01-1.3,.42-.54,.8-.99,1.13-1.37l5.8-6.19h3.82l-7.28,7.79,7.79,10.36h-3.92l-6.11-8.28-2.19,1.94v6.34h-3.29V20.27h3.29Z"/></g></svg>