<svg xmlns="http://www.w3.org/2000/svg" width="45.16" height="45.16" viewBox="0 0 45.16 45.16">
  <g id="smallLogo" transform="translate(-22787 -20323)">
    <path id="Path_1104" data-name="Path 1104" d="M36.1,18.07a1.863,1.863,0,0,1,1.86,1.86v7.73l6.28.04h.74a22.1,22.1,0,0,0,.18-2.84A22.872,22.872,0,0,0,.45,18.07Z" transform="translate(22787 20321)" fill="#3b8b87"/>
    <path id="Path_1105" data-name="Path 1105" d="M44.32,30.85h-.63l-.44-1.84-5.52-.03a1.861,1.861,0,0,1-1.63.97H25.79a7.28,7.28,0,0,0-14.56,0H0a22.831,22.831,0,0,0,44.31.91Zm-25.8,5.11a6.01,6.01,0,1,1,6.01-6.01A6.009,6.009,0,0,1,18.52,35.96Z" transform="translate(22787 20320.42)" fill="#ed7b45"/>
  </g>
</svg>
