<svg xmlns="http://www.w3.org/2000/svg" xmlns:xlink="http://www.w3.org/1999/xlink" width="90" height="90" viewBox="0 0 90 90">
  <defs>
    <clipPath id="clip-path">
      <rect id="Rectangle_650" data-name="Rectangle 650" width="22" height="10.955" transform="translate(0 0)" fill="#fff"/>
    </clipPath>
  </defs>
  <g id="areamarker" transform="translate(-818 -1640)">
    <rect id="Rectangle_652" data-name="Rectangle 652" width="90" height="90" rx="45" transform="translate(818 1640)" fill="#f93" opacity="0.4"/>
    <rect id="Rectangle_651" data-name="Rectangle 651" width="70" height="70" rx="35" transform="translate(828 1650)" fill="#f93" opacity="0.6"/>
    <rect id="Rectangle_649" data-name="Rectangle 649" width="50" height="50" rx="25" transform="translate(838 1660)" fill="#f93"/>
    <g id="Group_306" data-name="Group 306" transform="translate(852 1670.527)" clip-path="url(#clip-path)">
      <path id="Path_214" data-name="Path 214" d="M2.132,5.787a3.32,3.32,0,1,0,3.32-3.32,3.32,3.32,0,0,0-3.32,3.32" transform="translate(9.499 1.846)" fill="#fff"/>
      <path id="Path_215" data-name="Path 215" d="M1.061,0H18.318a1.062,1.062,0,0,1,1.061,1.061V6.653a1.062,1.062,0,0,1-1.061,1.061h-1.79a4.237,4.237,0,0,0-8.473,0H1.061A1.062,1.062,0,0,1,0,6.653V1.061A1.062,1.062,0,0,1,1.061,0" transform="translate(2.621 0)" fill="#fff"/>
      <path id="Path_216" data-name="Path 216" d="M10.478,4.825h3.455a.9.9,0,0,0,0-1.79H10.478a.9.9,0,1,0,0,1.79" transform="translate(-9.585 2.272)" fill="#fff"/>
    </g>
    <text id="_58" data-name="$58" transform="translate(852 1697)" fill="#fff" font-size="12" font-family="Futura-Medium, Futura" font-weight="500"><tspan x="0" y="0">$58</tspan></text>
  </g>
</svg>
