<svg xmlns="http://www.w3.org/2000/svg" width="258.768" height="512.912" viewBox="0 0 258.768 512.912">
  <g id="noResults" transform="translate(-144.095)">
    <path id="Path_799" data-name="Path 799" d="M372.633,365.415H174.325a30.264,30.264,0,0,1-30.23-30.23V136.877a30.264,30.264,0,0,1,30.23-30.23H372.633a30.264,30.264,0,0,1,30.23,30.23V335.185A30.264,30.264,0,0,1,372.633,365.415ZM174.325,111.484a25.393,25.393,0,0,0-25.393,25.393V335.185a25.393,25.393,0,0,0,25.393,25.393h138.91a84.791,84.791,0,0,0,84.791-84.791V136.877a25.393,25.393,0,0,0-25.393-25.393H174.325Z" fill="#f2f2f2"/>
    <path id="Path_800" data-name="Path 800" d="M195.7,132.106a17.04,17.04,0,0,0-17.021,17.021v26.642A17.04,17.04,0,0,0,195.7,192.79h26.642a17.04,17.04,0,0,0,17.021-17.021V149.127a17.04,17.04,0,0,0-17.021-17.021Z" fill="#f2f2f2"/>
    <path id="Path_801" data-name="Path 801" d="M195.7,207.106a17.04,17.04,0,0,0-17.021,17.021v26.642A17.04,17.04,0,0,0,195.7,267.79h26.642a17.04,17.04,0,0,0,17.021-17.021V224.127a17.04,17.04,0,0,0-17.021-17.021H195.7Z" fill="#f2f2f2"/>
    <path id="Path_802" data-name="Path 802" d="M195.7,282.106a17.04,17.04,0,0,0-17.021,17.021v26.642A17.04,17.04,0,0,0,195.7,342.79h26.642a17.04,17.04,0,0,0,17.021-17.021V299.127a17.04,17.04,0,0,0-17.021-17.021Z" fill="#f2f2f2"/>
    <g id="Group_387" data-name="Group 387">
      <path id="Path_803" data-name="Path 803" d="M213.372,67.106a21.471,21.471,0,0,0-21.447,21.447v33.569a21.471,21.471,0,0,0,21.447,21.447h33.569a21.471,21.471,0,0,0,21.447-21.447V88.553a21.471,21.471,0,0,0-21.447-21.447H213.371Z" fill="#ee7b46"/>
      <path id="Path_804" data-name="Path 804" d="M323.89,160.919a21.471,21.471,0,0,0-21.447,21.447v33.569a21.471,21.471,0,0,0,21.447,21.447H357.46a21.471,21.471,0,0,0,21.447-21.447V182.366a21.471,21.471,0,0,0-21.447-21.447H323.89Z" fill="#ee7b46"/>
      <g id="Group_383" data-name="Group 383">
        <path id="Path_805" data-name="Path 805" d="M275.842,498.808l-6.82-.057L266,471.833l10.065.085Z" fill="#a0616a"/>
        <path id="Path_806" data-name="Path 806" d="M254,509.652a3.053,3.053,0,0,0,3.023,3.076l13.559.113,2.374-4.811.872,4.836,5.116.046-1.292-17.248-1.78-.118-7.26-.5-2.342-.157-.041,4.88-10.892,7.388a3.048,3.048,0,0,0-1.336,2.5Z" fill="#2f2e41"/>
      </g>
      <g id="Group_384" data-name="Group 384">
        <path id="Path_807" data-name="Path 807" d="M310.54,498.808l-6.82-.057L300.7,471.833l10.065.085Z" fill="#a0616a"/>
        <path id="Path_808" data-name="Path 808" d="M288.7,509.652a3.053,3.053,0,0,0,3.023,3.076l13.559.113,2.374-4.811.872,4.836,5.116.046-1.292-17.248-1.78-.118-7.26-.5-2.342-.157-.041,4.88-10.892,7.388a3.048,3.048,0,0,0-1.336,2.5Z" fill="#2f2e41"/>
      </g>
      <path id="Path_809" data-name="Path 809" d="M249.081,281.178l27.643.873,26.189,5.82s-2.619,3.2,6.111,11.93c0,0,11.639,20.369,3.492,40.156L309.024,419.1s10.181,55.794,2.4,73.551l-10.281.643-17.4-73.55-8.479-79.209L271.2,418.523s15.585,53.527,5.744,74.776l-11.135-.643-19.052-74.133s-8.148-85.549-6.984-101.844,9.311-35.5,9.311-35.5Z" fill="#2f2e41"/>
      <g id="Group_385" data-name="Group 385">
        <path id="Path_810" data-name="Path 810" d="M341.914,156.113a7.06,7.06,0,0,0-2.193,12.685v.01l-.536,12.985,9.937,4.6.793-19.981-.069,0a7.062,7.062,0,0,0-7.931-10.3Z" fill="#a0616a"/>
        <path id="Path_811" data-name="Path 811" d="M286.378,202.455a11.439,11.439,0,0,1,14.967-17.229l31.2,23.493,5.56-33.844,11.937,3.843-2.848,44.07a8.906,8.906,0,0,1-13.291,7.166L288.812,204.3a11.607,11.607,0,0,1-2.435-1.844Z" fill="#3f3d56"/>
      </g>
      <g id="Group_386" data-name="Group 386">
        <path id="Path_812" data-name="Path 812" d="M238.8,137.182a7.06,7.06,0,0,1-7.373,10.552l-.007.007-8.761,9.6-10.294-3.73,13.5-14.748.048.05a7.062,7.062,0,0,1,12.883-1.73Z" fill="#a0616a"/>
        <path id="Path_813" data-name="Path 813" d="M242.584,208.787,192.5,195.258a8.906,8.906,0,0,1-4.393-14.446l29.005-33.3,11.182,5.675-19.88,27.949,38.7,5.285a11.44,11.44,0,0,1-1.5,22.773,11.606,11.606,0,0,1-3.027-.4Z" fill="#3f3d56"/>
      </g>
      <path id="Path_814" data-name="Path 814" d="M313.989,292.822l-70.038,3.213c-1.924-2.921-1.4-7.313,1.291-12.814,10.171-20.767,2.447-60.055-2.75-80.512a9.651,9.651,0,0,1,8.349-12.035l6.6-.66,6.1-18.634h21.379l8.869,10.133,15.052,9.144c-2.74,28.221-14.414,68.071,2.217,88.055,3.637,4.371,4.669,9.1,2.923,14.111Z" fill="#3f3d56"/>
      <circle id="Ellipse_45" data-name="Ellipse 45" cx="20.824" cy="20.824" r="20.824" transform="translate(250.695 130.163)" fill="#a0616a"/>
      <path id="Path_815" data-name="Path 815" d="M295.082,137.658c2.9-10.563-28.679-19.621-34.815-11.114-.853-1.209-4.007-1.944-5.453-1.573a11.283,11.283,0,0,0-3.851,2.2,15.208,15.208,0,0,0-4.326,4.355c-1.009,1.8-1.165,4.244.193,5.8,1.076,1.239,2.966,7.823,4.584,8.15,1.128.23,2.077.415,2.894.549.727-1.061,2.581-2.394,2.448-3.677,1.1.727.7,2.006.476,3.314-.737,4.354-17.346,38.055-7.833,28.124a19.937,19.937,0,0,0,3.45,1.551,43.384,43.384,0,0,0,5.379-11.723l.009.078a9.243,9.243,0,0,0,6.674,7.734c14.279,4.137,25.83-1.933,29.8-12.88-1.454-2.953-2.088-2.632-1.958-2.72a3.419,3.419,0,0,1,5.092,1.622c.23.6.439,1.118.62,1.506,2.07-7.4,4.532-6.336-3.385-21.294Z" fill="#2f2e41"/>
      <path id="Path_816" data-name="Path 816" d="M285.231,129.994l-1.459-7.457a2.975,2.975,0,0,1,.044-1.88,2.017,2.017,0,0,1,2.109-.924c.812.117,1.42.859,2.228,1,2.81.5,6.524-2.279,7.531,4.742.42,2.927,5.091,3.237,6.651,5.749s1.751,6.139-.378,8.191a6.422,6.422,0,0,1-6.639.991,14.439,14.439,0,0,1-5.529-4.312,49.8,49.8,0,0,0-4.736-5.259" fill="#2f2e41"/>
      <path id="Path_817" data-name="Path 817" d="M296.195,141.336c-5.7-.8-9.582-2.868-11.544-6.159a11.559,11.559,0,0,1-.773-9.25l1.2.448c-.016.044-1.576,4.385.68,8.156,1.755,2.933,5.325,4.795,10.611,5.533Z" fill="#ee7b46"/>
    </g>
    <path id="Path_818" data-name="Path 818" d="M322.934,60.762a30.381,30.381,0,1,1,30.381-30.381A30.417,30.417,0,0,1,322.934,60.762Zm0-48.61a18.229,18.229,0,1,0,18.229,18.229A18.249,18.249,0,0,0,322.934,12.152Z" fill="#ee7b46"/>
    <path id="Path_819" data-name="Path 819" d="M369.677,81.409a6.045,6.045,0,0,1-4.154-1.644L337.009,53.042a6.075,6.075,0,1,1,8.307-8.865L373.831,70.9a6.076,6.076,0,0,1-4.154,10.509Z" fill="#ee7b46"/>
  </g>
</svg>
