<svg xmlns="http://www.w3.org/2000/svg" xmlns:xlink="http://www.w3.org/1999/xlink" width="500" height="193.333" viewBox="0 0 500 193.333">
  <defs>
    <clipPath id="clip-path">
      <rect id="Rectangle_1020" data-name="Rectangle 1020" width="500" height="193.333" transform="translate(-5623 13839)" fill="#fff" stroke="#707070" stroke-width="1"/>
    </clipPath>
  </defs>
  <g id="trailerIllustration" transform="translate(-710 -1227)">
    <g id="Mask_Group_12" data-name="Mask Group 12" transform="translate(6333 -12612)" clip-path="url(#clip-path)">
      <rect id="Rectangle_978" data-name="Rectangle 978" width="331.852" height="159.259" transform="translate(-5606.704 13856.037)" fill="#fff"/>
      <g id="Rectangle_979" data-name="Rectangle 979" transform="translate(-5614.111 13854.787)" fill="none" stroke="#ddd" stroke-width="1">
        <rect width="7.407" height="161.759" stroke="none"/>
        <rect x="0.5" y="0.5" width="6.407" height="160.759" fill="none"/>
      </g>
      <g id="Rectangle_980" data-name="Rectangle 980" transform="translate(-5617.306 13856.037)" fill="none" stroke="#ddd" stroke-width="1">
        <rect width="4.444" height="160.509" stroke="none"/>
        <rect x="0.5" y="0.5" width="3.444" height="159.509" fill="none"/>
      </g>
      <g id="Rectangle_981" data-name="Rectangle 981" transform="translate(-5620.5 13976.778)" fill="none" stroke="#ddd" stroke-width="1">
        <rect width="4.444" height="28.148" stroke="none"/>
        <rect x="0.5" y="0.5" width="3.444" height="27.148" fill="none"/>
      </g>
      <g id="Rectangle_982" data-name="Rectangle 982" transform="translate(-5620.5 13866.407)" fill="none" stroke="#ddd" stroke-width="1">
        <rect width="4.444" height="28.148" stroke="none"/>
        <rect x="0.5" y="0.5" width="3.444" height="27.148" fill="none"/>
      </g>
      <g id="Rectangle_983" data-name="Rectangle 983" transform="translate(-5448.185 13846.407)" fill="none" stroke="#ddd" stroke-width="1">
        <rect width="14.815" height="9.63" stroke="none"/>
        <rect x="0.5" y="0.5" width="13.815" height="8.63" fill="none"/>
      </g>
      <g id="Rectangle_984" data-name="Rectangle 984" transform="translate(-5600.546 13850.111)" fill="none" stroke="#ddd" stroke-width="1">
        <rect width="153.611" height="5.926" stroke="none"/>
        <rect x="0.5" y="0.5" width="152.611" height="4.926" fill="none"/>
      </g>
      <g id="Rectangle_985" data-name="Rectangle 985" transform="translate(-5614.111 13846.407)" fill="none" stroke="#ddd" stroke-width="1">
        <rect width="14.815" height="9.63" stroke="none"/>
        <rect x="0.5" y="0.5" width="13.815" height="8.63" fill="none"/>
      </g>
      <g id="Rectangle_986" data-name="Rectangle 986" transform="translate(-5434.621 13850.111)" fill="none" stroke="#ddd" stroke-width="1">
        <rect width="153.611" height="5.926" stroke="none"/>
        <rect x="0.5" y="0.5" width="152.611" height="4.926" fill="none"/>
      </g>
      <g id="Rectangle_987" data-name="Rectangle 987" transform="translate(-5282.259 13846.407)" fill="none" stroke="#ddd" stroke-width="1">
        <rect width="14.815" height="9.63" stroke="none"/>
        <rect x="0.5" y="0.5" width="13.815" height="8.63" fill="none"/>
      </g>
      <g id="Rectangle_993" data-name="Rectangle 993" transform="translate(-5274.852 13854.787)" fill="none" stroke="#ddd" stroke-width="1">
        <rect width="5.185" height="161.759" stroke="none"/>
        <rect x="0.5" y="0.5" width="4.185" height="160.759" fill="none"/>
      </g>
      <g id="Rectangle_994" data-name="Rectangle 994" transform="translate(-5581.519 13846.177)" fill="none" stroke="#ddd" stroke-width="1">
        <rect width="79.259" height="5.185" stroke="none"/>
        <rect x="0.5" y="0.5" width="78.259" height="4.185" fill="none"/>
      </g>
      <g id="Rectangle_995" data-name="Rectangle 995" transform="translate(-5379.296 13845.436)" fill="none" stroke="#ddd" stroke-width="1">
        <rect width="79.259" height="5.185" stroke="none"/>
        <rect x="0.5" y="0.5" width="78.259" height="4.185" fill="none"/>
      </g>
      <g id="Rectangle_996" data-name="Rectangle 996" transform="translate(-5450.407 14015.297)" fill="none" stroke="#ddd" stroke-width="1">
        <rect width="14.815" height="9.63" stroke="none"/>
        <rect x="0.5" y="0.5" width="13.815" height="8.63" fill="none"/>
      </g>
      <g id="Rectangle_997" data-name="Rectangle 997" transform="translate(-5602.769 14015.297)" fill="none" stroke="#ddd" stroke-width="1">
        <rect width="153.611" height="5.926" stroke="none"/>
        <rect x="0.5" y="0.5" width="152.611" height="4.926" fill="none"/>
      </g>
      <g id="Rectangle_998" data-name="Rectangle 998" transform="translate(-5616.333 14015.297)" fill="none" stroke="#ddd" stroke-width="1">
        <rect width="14.815" height="9.63" stroke="none"/>
        <rect x="0.5" y="0.5" width="13.815" height="8.63" fill="none"/>
      </g>
      <g id="Rectangle_999" data-name="Rectangle 999" transform="translate(-5436.843 14015.297)" fill="none" stroke="#ddd" stroke-width="1">
        <rect width="153.611" height="5.926" stroke="none"/>
        <rect x="0.5" y="0.5" width="152.611" height="4.926" fill="none"/>
      </g>
      <g id="Rectangle_1000" data-name="Rectangle 1000" transform="translate(-5163.509 13926.407)" fill="none" stroke="#ddd" stroke-width="1">
        <rect width="8.657" height="7.407" stroke="none"/>
        <rect x="0.5" y="0.5" width="7.657" height="6.407" fill="none"/>
      </g>
      <g id="Rectangle_1001" data-name="Rectangle 1001" transform="translate(-5583.741 14019.972)" fill="none" stroke="#ddd" stroke-width="1">
        <rect width="79.259" height="5.185" stroke="none"/>
        <rect x="0.5" y="0.5" width="78.259" height="4.185" fill="none"/>
      </g>
      <g id="Rectangle_1002" data-name="Rectangle 1002" transform="translate(-5381.519 14020.25)" fill="none" stroke="#ddd" stroke-width="1">
        <rect width="79.259" height="5.185" stroke="none"/>
        <rect x="0.5" y="0.5" width="78.259" height="4.185" fill="none"/>
      </g>
      <g id="Rectangle_1003" data-name="Rectangle 1003" transform="translate(-5270.917 13898.491)" fill="none" stroke="#ddd" stroke-width="1">
        <rect width="12.361" height="6.435" stroke="none"/>
        <rect x="0.5" y="0.5" width="11.361" height="5.435" fill="none"/>
      </g>
      <g id="Rectangle_1004" data-name="Rectangle 1004" transform="translate(-5270.917 13893.073)" fill="none" stroke="#ddd" stroke-width="1">
        <rect width="20.509" height="6.667" stroke="none"/>
        <rect x="0.5" y="0.5" width="19.509" height="5.667" fill="none"/>
      </g>
      <g id="Rectangle_1005" data-name="Rectangle 1005" transform="translate(-5270.917 13887.889)" fill="none" stroke="#ddd" stroke-width="1">
        <rect width="12.361" height="6.435" stroke="none"/>
        <rect x="0.5" y="0.5" width="11.361" height="5.435" fill="none"/>
      </g>
      <g id="Rectangle_1006" data-name="Rectangle 1006" transform="translate(-5269.667 13978.259)" fill="none" stroke="#ddd" stroke-width="1">
        <rect width="11.111" height="5.185" stroke="none"/>
        <rect x="0.5" y="0.5" width="10.111" height="4.185" fill="none"/>
      </g>
      <g id="Rectangle_1007" data-name="Rectangle 1007" transform="translate(-5269.667 13971.593)" fill="none" stroke="#ddd" stroke-width="1">
        <rect width="19.259" height="6.667" stroke="none"/>
        <rect x="0.5" y="0.5" width="18.259" height="5.667" fill="none"/>
      </g>
      <g id="Rectangle_1008" data-name="Rectangle 1008" transform="translate(-5269.667 13966.407)" fill="none" stroke="#ddd" stroke-width="1">
        <rect width="11.111" height="5.185" stroke="none"/>
        <rect x="0.5" y="0.5" width="10.111" height="4.185" fill="none"/>
      </g>
      <g id="Path_778" data-name="Path 778" transform="translate(-5250.407 13893.073)" fill="none">
        <path d="M0,0,53.333,20.754V27.1L0,6.667Z" stroke="none"/>
        <path d="M 0.9999961853027344 1.462186813354492 L 0.9999961853027344 5.978870391845703 L 52.33333969116211 25.64244842529297 L 52.33333969116211 21.43829727172852 L 0.9999961853027344 1.462186813354492 M -3.814697265625e-06 -1.9073486328125e-06 L 53.33333969116211 20.75439834594727 L 53.33333969116211 27.09635734558105 L -3.814697265625e-06 6.666667938232422 L -3.814697265625e-06 -1.9073486328125e-06 Z" stroke="none" fill="#ddd"/>
      </g>
      <g id="Path_779" data-name="Path 779" transform="translate(-5250.407 13951.593)" fill="none">
        <path d="M53.333,0,0,20v6.648l53.333-20.6Z" stroke="none"/>
        <path d="M 52.33333969116211 1.443090438842773 L 0.9999961853027344 20.69662284851074 L 0.9999961853027344 25.19341468811035 L 52.33333969116211 5.367694854736328 L 52.33333969116211 1.443090438842773 M 53.33333969116211 -3.814697265625e-06 L 53.33333969116211 6.053464889526367 L -3.814697265625e-06 26.65161514282227 L -3.814697265625e-06 20.00366592407227 L 53.33333969116211 -3.814697265625e-06 Z" stroke="none" fill="#ddd"/>
      </g>
      <g id="Path_780" data-name="Path 780" transform="translate(-5197.074 13913.814)" fill="none">
        <path d="M0,0,34.661,13.009V30.671L0,43.84Z" stroke="none"/>
        <path d="M 1 1.443435668945312 L 1 42.39004516601562 L 33.66109848022461 29.9815673828125 L 33.66109848022461 13.70182228088379 L 1 1.443435668945312 M 0 0 L 34.66109848022461 13.00902938842773 L 34.66109848022461 30.67139053344727 L 0 43.83969879150391 L 0 0 Z" stroke="none" fill="#ddd"/>
      </g>
      <g id="Rectangle_1009" data-name="Rectangle 1009" transform="translate(-5284.481 14015.297)" fill="none" stroke="#ddd" stroke-width="1">
        <rect width="14.815" height="9.63" stroke="none"/>
        <rect x="0.5" y="0.5" width="13.815" height="8.63" fill="none"/>
      </g>
      <g id="Rectangle_1010" data-name="Rectangle 1010" transform="translate(-5156.102 13926.407)" fill="none" stroke="#ddd" stroke-width="1">
        <rect width="11.62" height="5.185" stroke="none"/>
        <rect x="0.5" y="0.5" width="10.62" height="4.185" fill="none"/>
      </g>
      <g id="Rectangle_1011" data-name="Rectangle 1011" transform="translate(-5163.509 13937.518)" fill="none" stroke="#ddd" stroke-width="1">
        <rect width="8.657" height="7.407" stroke="none"/>
        <rect x="0.5" y="0.5" width="7.657" height="6.407" fill="none"/>
      </g>
      <g id="Rectangle_1012" data-name="Rectangle 1012" transform="translate(-5156.102 13939.741)" fill="none" stroke="#ddd" stroke-width="1">
        <rect width="11.62" height="5.185" stroke="none"/>
        <rect x="0.5" y="0.5" width="10.62" height="4.185" fill="none"/>
      </g>
      <g id="Rectangle_1013" data-name="Rectangle 1013" transform="translate(-5163.509 13932.564)" fill="none" stroke="#ddd" stroke-width="1">
        <rect width="8.657" height="6.204" stroke="none"/>
        <rect x="0.5" y="0.5" width="7.657" height="5.204" fill="none"/>
      </g>
      <g id="Rectangle_1014" data-name="Rectangle 1014" transform="translate(-5156.102 13930.343)" fill="none" stroke="#ddd" stroke-width="1">
        <rect width="11.62" height="10.648" stroke="none"/>
        <rect x="0.5" y="0.5" width="10.62" height="9.648" fill="none"/>
      </g>
      <g id="Rectangle_1015" data-name="Rectangle 1015" transform="translate(-5144.481 13933.814)" fill="none" stroke="#ddd" stroke-width="1">
        <rect width="5.926" height="3.704" stroke="none"/>
        <rect x="0.5" y="0.5" width="4.926" height="2.704" fill="none"/>
      </g>
      <g id="Ellipse_43" data-name="Ellipse 43" transform="translate(-5139.296 13927.889)" fill="none" stroke="#ddd" stroke-width="4">
        <circle cx="8.148" cy="8.148" r="8.148" stroke="none"/>
        <circle cx="8.148" cy="8.148" r="6.148" fill="none"/>
      </g>
      <path id="Rectangle_1016" data-name="Rectangle 1016" d="M0,0H72.593a0,0,0,0,1,0,0V0a5.926,5.926,0,0,1-5.926,5.926H5.926A5.926,5.926,0,0,1,0,0V0A0,0,0,0,1,0,0Z" transform="translate(-5378.186 14025.436)" fill="#ddd"/>
      <path id="Rectangle_1017" data-name="Rectangle 1017" d="M0,0H72.593a0,0,0,0,1,0,0V0a5.926,5.926,0,0,1-5.926,5.926H5.926A5.926,5.926,0,0,1,0,0V0A0,0,0,0,1,0,0Z" transform="translate(-5580.408 14025.157)" fill="#ddd"/>
      <path id="Rectangle_1018" data-name="Rectangle 1018" d="M5.926,0H66.667a5.926,5.926,0,0,1,5.926,5.926v0a0,0,0,0,1,0,0H0a0,0,0,0,1,0,0v0A5.926,5.926,0,0,1,5.926,0Z" transform="translate(-5375.963 13839.509)" fill="#ddd"/>
      <path id="Rectangle_1019" data-name="Rectangle 1019" d="M5.926,0H66.667a5.926,5.926,0,0,1,5.926,5.926v0a0,0,0,0,1,0,0H0a0,0,0,0,1,0,0v0A5.926,5.926,0,0,1,5.926,0Z" transform="translate(-5578.186 13840.25)" fill="#ddd"/>
    </g>
    <line id="Line_174" data-name="Line 174" y1="128" transform="translate(735 1259.756)" fill="none" stroke="#ee7b46" stroke-width="1"/>
    <text id="Breedte_in_Cm" data-name="Breedte in Cm" transform="translate(743 1290.756) rotate(90)" font-size="10" font-family="OpenSans, Open Sans"><tspan x="0" y="0">Breedte in Cm</tspan></text>
    <text id="Lengte_in_Cm" data-name="Lengte in Cm" transform="translate(868 1386)" font-size="10" font-family="OpenSans, Open Sans"><tspan x="0" y="0">Lengte in Cm</tspan></text>
    <path id="Icon_ionic-ios-arrow-down" data-name="Icon ionic-ios-arrow-down" d="M10.189,14.442l3.025-3.027a.569.569,0,0,1,.807,0,.577.577,0,0,1,0,.81l-3.427,3.43a.571.571,0,0,1-.788.017L6.354,12.227a.572.572,0,1,1,.807-.81Z" transform="translate(724.813 1372.758)" fill="#ee7b46"/>
    <path id="Icon_ionic-ios-arrow-down-2" data-name="Icon ionic-ios-arrow-down" d="M10.189,12.625l3.025,3.027a.569.569,0,0,0,.807,0,.577.577,0,0,0,0-.81l-3.427-3.43a.571.571,0,0,0-.788-.017L6.354,14.84a.572.572,0,1,0,.807.81Z" transform="translate(724.813 1247.51)" fill="#ee7b46"/>
    <line id="Line_175" data-name="Line 175" y1="301.638" transform="translate(1049.46 1394) rotate(90)" fill="none" stroke="#ee7b46" stroke-width="1"/>
    <path id="Icon_ionic-ios-arrow-down-3" data-name="Icon ionic-ios-arrow-down" d="M4,3.2,7.026.168a.569.569,0,0,1,.807,0,.577.577,0,0,1,0,.81L4.406,4.408a.571.571,0,0,1-.788.017L.167.98A.572.572,0,0,1,.974.17Z" transform="translate(751.574 1390) rotate(90)" fill="#ee7b46"/>
    <path id="Icon_ionic-ios-arrow-down-4" data-name="Icon ionic-ios-arrow-down" d="M4,1.379,7.026,4.406a.569.569,0,0,0,.807,0,.577.577,0,0,0,0-.81L4.406.167A.571.571,0,0,0,3.618.15L.167,3.594a.572.572,0,0,0,.807.81Z" transform="translate(1050.46 1390) rotate(90)" fill="#ee7b46"/>
  </g>
</svg>
